<svg xmlns="http://www.w3.org/2000/svg" width="32" height="32"><path fill="#f2f2f2" d="M27.609 11.576v13.173c0 .732-.599 1.331-1.331 1.331H5.787a1.335 1.335 0 0 1-1.331-1.331V11.576c0-1.929.466-3.726 1.264-5.322A11.546 11.546 0 0 1 16.032 0c3.193 0 6.121 1.264 8.183 3.393a11.98 11.98 0 0 1 2.728 4.258c.466 1.197.665 2.528.665 3.925z"/><path fill="#ffd15c" d="M19.16 26.146v2.728c0 1.73-1.397 3.127-3.127 3.127s-3.127-1.397-3.127-3.127v-2.728h6.254z"/><path fill="#ff7058" d="M26.944 7.651c-7.518-1.331-15.035 5.788-22.486 3.992v-.067C4.458 5.189 9.647 0 16.034 0c3.193 0 6.121 1.264 8.183 3.393a11.98 11.98 0 0 1 2.728 4.258z"/><path fill="#f8b64c" d="M12.906 26.146h6.254v.998h-6.254v-.998z"/><path fill="#ff7058" d="m19.626 6.254-2.462 7.518c-.333.931-.931 1.464-1.53 1.464s-1.197-.466-1.53-1.464c-.665-1.929-2.395-1.929-2.994 0l-1.53 4.59c-.665 1.929-2.395 1.929-2.994 0l-2.062-6.187c0-.067-.067-.2-.133-.266v-.399c0-1.929.466-3.726 1.264-5.322h13.971v.067z"/></svg>