
<svg version="1.1" xmlns="http://www.w3.org/2000/svg" width="32" height="32" viewBox="0 0 32 32">
<title>ice-cream</title>
<path fill="#f2f2f2" d="M27.609 11.576v13.173c0 0.732-0.599 1.331-1.331 1.331h-20.491c-0.732 0-1.331-0.599-1.331-1.331v-13.173c0-1.929 0.466-3.726 1.264-5.322 1.929-3.726 5.788-6.254 10.312-6.254 3.193 0 6.121 1.264 8.183 3.393 1.198 1.198 2.129 2.661 2.728 4.258 0.466 1.197 0.665 2.528 0.665 3.925z"></path>
<path fill="#ffd15c" d="M19.16 26.146v2.728c0 1.73-1.397 3.127-3.127 3.127s-3.127-1.397-3.127-3.127v-2.728h6.254z"></path>
<path fill="#ff7058" d="M26.944 7.651c-7.518-1.331-15.035 5.788-22.486 3.992v-0.067c0-6.387 5.189-11.576 11.576-11.576 3.193 0 6.121 1.264 8.183 3.393 1.198 1.198 2.129 2.661 2.728 4.258z"></path>
<path fill="#f8b64c" d="M12.906 26.146h6.254v0.998h-6.254v-0.998z"></path>
<path fill="#ff7058" d="M19.626 6.254l-2.462 7.518c-0.333 0.931-0.931 1.464-1.53 1.464s-1.197-0.466-1.53-1.464c-0.665-1.929-2.395-1.929-2.994 0l-1.53 4.59c-0.665 1.929-2.395 1.929-2.994 0l-2.062-6.187c0-0.067-0.067-0.2-0.133-0.266v-0.399c0-1.929 0.466-3.726 1.264-5.322h13.971v0.067z"></path>
</svg>
